####################################################
# Wavefront .obj format modified by Milos Seleceni #
####################################################

v  -60.0000 0.0000 0.0000
v  -30.0000 0.0000 0.0000
v  -30.0000 -0.0000 30.0000
v  -60.0000 -0.0000 30.0000
v  -30.0000 200.0000 30.0000
v  -30.0000 200.0000 0.0000
v  -60.0000 200.0000 0.0000
v  -60.0000 200.0000 30.0000
v  -30.0000 3.4357 -26.3622
v  -30.0000 50.0000 -26.3622
v  -56.5643 50.0000 -26.3622
v  -56.5643 3.4357 -26.3622
v  60.0000 0.0000 0.0000
v  60.0000 50.0000 0.0000
v  60.0000 50.0000 30.0000
v  60.0000 -0.0000 30.0000
v  30.0000 0.0000 -30.0000
v  30.0000 50.0000 -30.0000
v  60.0000 50.0000 -30.0000
v  60.0000 0.0000 -30.0000
v  -60.0000 0.0000 0.0000
v  -60.0000 50.0000 0.0000
v  -60.0000 50.0000 -30.0000
v  -60.0000 0.0000 -30.0000
v  -30.0000 -0.0000 30.0000
v  -30.0000 3.4357 30.0000
v  -56.5643 3.4357 30.0000
v  -60.0000 -0.0000 30.0000
v  60.0000 50.0000 30.0000
v  56.5643 50.0000 30.0000
v  56.5643 3.4357 30.0000
v  60.0000 -0.0000 30.0000
v  30.0000 200.0000 30.0000
v  30.0000 196.5643 30.0000
v  56.5643 196.5643 30.0000
v  60.0000 200.0000 30.0000
v  -60.0000 150.0000 30.0000
v  -56.5643 150.0000 30.0000
v  -56.5643 196.5643 30.0000
v  -60.0000 200.0000 30.0000
v  -30.0000 3.4357 30.0000
v  -30.0000 3.4357 0.0000
v  -56.5643 3.4357 0.0000
v  -56.5643 3.4357 30.0000
v  56.5643 50.0000 30.0000
v  56.5643 50.0000 0.0000
v  56.5643 3.4357 0.0000
v  56.5643 3.4357 30.0000
v  30.0000 196.5643 30.0000
v  30.0000 196.5643 0.0000
v  56.5643 196.5643 0.0000
v  56.5643 196.5643 30.0000
v  -56.5643 150.0000 30.0000
v  -56.5643 150.0000 0.0000
v  -56.5643 196.5643 0.0000
v  -56.5643 196.5643 30.0000
v  56.5643 196.5643 -26.3622
v  30.0000 196.5643 -26.3622
v  30.0000 150.0000 -26.3622
v  56.5643 150.0000 -26.3622
v  60.0000 200.0000 -30.0000
v  60.0000 200.0000 0.0000
v  60.0000 150.0000 0.0000
v  60.0000 150.0000 -30.0000
v  -60.0000 200.0000 -30.0000
v  -30.0000 200.0000 -30.0000
v  -30.0000 150.0000 -30.0000
v  -60.0000 150.0000 -30.0000
v  -60.0000 200.0000 30.0000
v  -60.0000 200.0000 0.0000
v  -60.0000 150.0000 0.0000
v  -60.0000 150.0000 30.0000
v  60.0000 150.0000 30.0000
v  56.5643 150.0000 30.0000
v  -60.0000 100.0000 30.0000
v  -56.5643 100.0000 30.0000
v  56.5643 196.5643 30.0000
v  56.5643 196.5643 0.0000
v  56.5643 150.0000 0.0000
v  56.5643 150.0000 30.0000
v  -56.5643 100.0000 30.0000
v  -56.5643 100.0000 0.0000
v  30.0000 100.0000 -26.3622
v  56.5643 100.0000 -26.3622
v  60.0000 100.0000 0.0000
v  60.0000 100.0000 -30.0000
v  -30.0000 100.0000 -30.0000
v  -60.0000 100.0000 -30.0000
v  -60.0000 100.0000 0.0000
v  -60.0000 100.0000 30.0000
v  56.5643 100.0000 30.0000
v  60.0000 100.0000 30.0000
v  56.5643 100.0000 0.0000
v  56.5643 100.0000 30.0000
v  -60.0000 50.0000 30.0000
v  -56.5643 50.0000 30.0000
v  -56.5643 50.0000 30.0000
v  -56.5643 50.0000 0.0000
v  30.0000 50.0000 -26.3622
v  56.5643 50.0000 -26.3622
v  60.0000 50.0000 -30.0000
v  -30.0000 50.0000 -30.0000
v  -60.0000 50.0000 -30.0000
v  -60.0000 50.0000 30.0000
v  -56.5643 3.4357 30.0000
v  -56.5643 3.4357 0.0000
v  30.0000 0.0000 -30.0000
v  30.0000 0.0000 0.0000
v  0.0000 0.0000 0.0000
v  0.0000 0.0000 -30.0000
v  30.0000 200.0000 30.0000
v  30.0000 200.0000 0.0000
v  0.0000 200.0000 0.0000
v  0.0000 200.0000 30.0000
v  30.0000 3.4357 -26.3622
v  0.0000 50.0000 -26.3622
v  0.0000 3.4357 -26.3622
v  -30.0000 0.0000 -30.0000
v  0.0000 50.0000 -30.0000
v  0.0000 0.0000 -30.0000
v  30.0000 -0.0000 30.0000
v  30.0000 3.4357 30.0000
v  0.0000 3.4357 30.0000
v  0.0000 -0.0000 30.0000
v  -30.0000 200.0000 30.0000
v  -30.0000 196.5643 30.0000
v  0.0000 196.5643 30.0000
v  0.0000 200.0000 30.0000
v  30.0000 3.4357 30.0000
v  30.0000 3.4357 0.0000
v  0.0000 3.4357 0.0000
v  0.0000 3.4357 30.0000
v  -30.0000 196.5643 30.0000
v  -30.0000 196.5643 0.0000
v  0.0000 196.5643 0.0000
v  0.0000 196.5643 30.0000
v  -30.0000 196.5643 -26.3622
v  -30.0000 150.0000 -26.3622
v  0.0000 150.0000 -26.3622
v  0.0000 196.5643 -26.3622
v  30.0000 200.0000 -30.0000
v  30.0000 150.0000 -30.0000
v  0.0000 150.0000 -30.0000
v  0.0000 200.0000 -30.0000
v  -30.0000 100.0000 -26.3622
v  0.0000 100.0000 -26.3622
v  30.0000 100.0000 -30.0000
v  0.0000 100.0000 -30.0000
v  -30.0000 0.0000 -30.0000
v  -60.0000 0.0000 -30.0000
v  -56.5643 196.5643 30.0000
v  -56.5643 196.5643 0.0000
v  -56.5643 196.5643 -26.3622
v  -56.5643 150.0000 -26.3622
v  -56.5643 100.0000 -26.3622
v  60.0000 0.0000 -30.0000
v  60.0000 0.0000 0.0000
v  60.0000 200.0000 30.0000
v  60.0000 200.0000 0.0000
v  56.5643 3.4357 -26.3622
v  56.5643 3.4357 30.0000
v  56.5643 3.4357 0.0000
v  60.0000 200.0000 -30.0000
v  60.0000 150.0000 -30.0000
v  60.0000 100.0000 -30.0000
v  -60.0000 0.0000 -30.0000
v  -30.0000 200.0000 -30.0000
v  -60.0000 200.0000 -30.0000
v  60.0000 0.0000 -30.0000
v  -60.0000 -0.0000 30.0000
v  -30.0000 3.4357 -26.3622
v  -56.5643 3.4357 -26.3622
v  56.5643 50.0000 -26.3622
v  56.5643 3.4357 -26.3622
v  30.0000 196.5643 -26.3622
v  56.5643 196.5643 -26.3622
v  -56.5643 150.0000 -26.3622
v  -56.5643 196.5643 -26.3622
v  60.0000 200.0000 30.0000
v  60.0000 150.0000 30.0000
v  -60.0000 200.0000 -30.0000
v  -60.0000 150.0000 -30.0000
v  56.5643 196.5643 -26.3622
v  56.5643 150.0000 -26.3622
v  -56.5643 100.0000 -26.3622
v  60.0000 100.0000 30.0000
v  -60.0000 100.0000 -30.0000
v  56.5643 100.0000 -26.3622
v  -56.5643 50.0000 -26.3622
v  -56.5643 3.4357 -26.3622
v  30.0000 -0.0000 30.0000
v  0.0000 -0.0000 30.0000
v  30.0000 200.0000 -30.0000
v  0.0000 200.0000 -30.0000
v  30.0000 3.4357 -26.3622
v  0.0000 3.4357 -26.3622
v  -30.0000 196.5643 -26.3622
v  0.0000 196.5643 -26.3622
v  -56.5643 196.5643 -26.3622
v  60.0000 -0.0000 30.0000
v  60.0000 200.0000 -30.0000
v  56.5643 3.4357 -26.3622
# 202 vertices

vn 0.0000 -1.0000 -0.0000
vn 0.0000 -1.0000 -0.0000
vn 0.0000 -1.0000 -0.0000
vn 0.0000 -1.0000 -0.0000
vn 0.0000 1.0000 0.0000
vn 0.0000 1.0000 0.0000
vn 0.0000 1.0000 0.0000
vn 0.0000 1.0000 0.0000
vn 0.0000 -0.0000 1.0000
vn 0.0000 -0.0000 1.0000
vn 0.0000 -0.0000 1.0000
vn 0.0000 -0.0000 1.0000
vn 1.0000 0.0000 0.0000
vn 1.0000 0.0000 0.0000
vn 1.0000 0.0000 0.0000
vn 1.0000 0.0000 0.0000
vn 0.0000 0.0000 -1.0000
vn 0.0000 0.0000 -1.0000
vn 0.0000 0.0000 -1.0000
vn 0.0000 0.0000 -1.0000
vn -1.0000 0.0000 0.0000
vn -1.0000 0.0000 0.0000
vn -1.0000 0.0000 0.0000
vn -1.0000 0.0000 0.0000
vn 0.0000 -0.0000 1.0000
vn 0.0000 -0.0000 1.0000
vn 0.0000 -0.0000 1.0000
vn 0.0000 -0.0000 1.0000
vn 0.0000 -0.0000 1.0000
vn 0.0000 -0.0000 1.0000
vn 0.0000 -0.0000 1.0000
vn 0.0000 -0.0000 1.0000
vn 0.0000 -0.0000 1.0000
vn 0.0000 -0.0000 1.0000
vn 0.0000 -0.0000 1.0000
vn 0.0000 -0.0000 1.0000
vn 0.0000 -0.0000 1.0000
vn 0.0000 -0.0000 1.0000
vn 0.0000 -0.0000 1.0000
vn 0.0000 -0.0000 1.0000
vn 0.0000 1.0000 0.0000
vn 0.0000 1.0000 0.0000
vn 0.0000 1.0000 0.0000
vn 0.0000 1.0000 0.0000
vn -1.0000 0.0000 0.0000
vn -1.0000 0.0000 0.0000
vn -1.0000 0.0000 0.0000
vn -1.0000 0.0000 0.0000
vn 0.0000 -1.0000 -0.0000
vn 0.0000 -1.0000 -0.0000
vn 0.0000 -1.0000 -0.0000
vn 0.0000 -1.0000 -0.0000
vn 1.0000 -0.0000 -0.0000
vn 1.0000 -0.0000 -0.0000
vn 1.0000 -0.0000 -0.0000
vn 1.0000 -0.0000 -0.0000
vn 0.0000 -0.0000 1.0000
vn 0.0000 -0.0000 1.0000
vn 0.0000 -0.0000 1.0000
vn 0.0000 -0.0000 1.0000
vn 1.0000 0.0000 0.0000
vn 1.0000 0.0000 0.0000
vn 1.0000 0.0000 0.0000
vn 1.0000 0.0000 0.0000
vn 0.0000 0.0000 -1.0000
vn 0.0000 0.0000 -1.0000
vn 0.0000 0.0000 -1.0000
vn 0.0000 0.0000 -1.0000
vn -1.0000 0.0000 0.0000
vn -1.0000 0.0000 0.0000
vn -1.0000 0.0000 0.0000
vn -1.0000 -0.0000 0.0000
vn 0.0000 -0.0000 1.0000
vn 0.0000 -0.0000 1.0000
vn -0.0000 -0.0000 1.0000
vn -0.0000 -0.0000 1.0000
vn -1.0000 0.0000 0.0000
vn -1.0000 0.0000 0.0000
vn -1.0000 0.0000 0.0000
vn -1.0000 0.0000 0.0000
vn 1.0000 0.0000 0.0000
vn 1.0000 0.0000 0.0000
vn 0.0000 -0.0000 1.0000
vn 0.0000 -0.0000 1.0000
vn 1.0000 0.0000 0.0000
vn 1.0000 0.0000 0.0000
vn 0.0000 0.0000 -1.0000
vn 0.0000 0.0000 -1.0000
vn -1.0000 -0.0000 0.0000
vn -1.0000 -0.0000 0.0000
vn 0.0000 -0.0000 1.0000
vn 0.0000 -0.0000 1.0000
vn -1.0000 0.0000 0.0000
vn -1.0000 0.0000 0.0000
vn -0.0000 -0.0000 1.0000
vn -0.0000 -0.0000 1.0000
vn 1.0000 0.0000 0.0000
vn 1.0000 0.0000 0.0000
vn 0.0000 -0.0000 1.0000
vn 0.0000 -0.0000 1.0000
vn 1.0000 0.0000 0.0000
vn 0.0000 0.0000 -1.0000
vn 0.0000 0.0000 -1.0000
vn -1.0000 0.0000 0.0000
vn 1.0000 0.0000 0.0000
vn 1.0000 0.0000 0.0000
vn 0.0000 -1.0000 -0.0000
vn 0.0000 -1.0000 -0.0000
vn 0.0000 -1.0000 -0.0000
vn 0.0000 -1.0000 -0.0000
vn 0.0000 1.0000 0.0000
vn 0.0000 1.0000 0.0000
vn 0.0000 1.0000 0.0000
vn 0.0000 1.0000 0.0000
vn 0.0000 -0.0000 1.0000
vn 0.0000 -0.0000 1.0000
vn 0.0000 -0.0000 1.0000
vn 0.0000 0.0000 -1.0000
vn 0.0000 0.0000 -1.0000
vn 0.0000 0.0000 -1.0000
vn 0.0000 -0.0000 1.0000
vn 0.0000 -0.0000 1.0000
vn 0.0000 -0.0000 1.0000
vn 0.0000 -0.0000 1.0000
vn 0.0000 -0.0000 1.0000
vn 0.0000 -0.0000 1.0000
vn 0.0000 -0.0000 1.0000
vn 0.0000 -0.0000 1.0000
vn 0.0000 1.0000 0.0000
vn 0.0000 1.0000 0.0000
vn 0.0000 1.0000 0.0000
vn 0.0000 1.0000 0.0000
vn 0.0000 -1.0000 -0.0000
vn 0.0000 -1.0000 -0.0000
vn 0.0000 -1.0000 -0.0000
vn 0.0000 -1.0000 -0.0000
vn 0.0000 -0.0000 1.0000
vn 0.0000 -0.0000 1.0000
vn 0.0000 -0.0000 1.0000
vn 0.0000 -0.0000 1.0000
vn 0.0000 0.0000 -1.0000
vn 0.0000 0.0000 -1.0000
vn 0.0000 0.0000 -1.0000
vn 0.0000 0.0000 -1.0000
vn 0.0000 -0.0000 1.0000
vn 0.0000 -0.0000 1.0000
vn 0.0000 0.0000 -1.0000
vn 0.0000 0.0000 -1.0000
vn 0.0000 -1.0000 -0.0000
vn 0.0000 0.0000 -1.0000
vn 0.0000 -1.0000 -0.0000
vn 0.0000 -1.0000 -0.0000
vn 0.0000 -0.0000 1.0000
vn 0.0000 -0.0000 1.0000
vn 0.0000 -0.0000 1.0000
vn 0.0000 -1.0000 -0.0000
vn 0.0000 -1.0000 -0.0000
vn 0.0000 1.0000 0.0000
vn 0.0000 1.0000 0.0000
vn 0.0000 -0.0000 1.0000
vn 0.0000 1.0000 0.0000
vn 0.0000 1.0000 0.0000
vn 0.0000 0.0000 -1.0000
vn 0.0000 0.0000 -1.0000
vn 0.0000 0.0000 -1.0000
vn 0.0000 -1.0000 -0.0000
vn 0.0000 1.0000 0.0000
vn 0.0000 1.0000 0.0000
vn 1.0000 0.0000 0.0000
vn -1.0000 0.0000 0.0000
vn 0.0000 1.0000 0.0000
vn 0.0000 1.0000 0.0000
vn -1.0000 0.0000 0.0000
vn -1.0000 0.0000 0.0000
vn 0.0000 -1.0000 -0.0000
vn 0.0000 -1.0000 -0.0000
vn 1.0000 -0.0000 -0.0000
vn 1.0000 -0.0000 -0.0000
vn 1.0000 0.0000 0.0000
vn 1.0000 0.0000 0.0000
vn -1.0000 0.0000 0.0000
vn -1.0000 0.0000 0.0000
vn -1.0000 0.0000 0.0000
vn -1.0000 0.0000 0.0000
vn 1.0000 0.0000 0.0000
vn 1.0000 0.0000 0.0000
vn -1.0000 0.0000 0.0000
vn -1.0000 0.0000 0.0000
vn 1.0000 0.0000 0.0000
vn 1.0000 0.0000 0.0000
vn 0.0000 -1.0000 -0.0000
vn 0.0000 -1.0000 -0.0000
vn 0.0000 1.0000 0.0000
vn 0.0000 1.0000 0.0000
vn 0.0000 1.0000 0.0000
vn 0.0000 1.0000 0.0000
vn 0.0000 -1.0000 -0.0000
vn 0.0000 -1.0000 -0.0000
vn 0.0000 -1.0000 -0.0000
vn 0.0000 -1.0000 -0.0000
vn 0.0000 1.0000 0.0000
vn 0.0000 1.0000 0.0000
# 202 vertex normals

vt 0.9995 0.5000 0.0005
vt 0.7498 0.5000 0.0005
vt 0.7498 0.0005 0.0005
vt 0.9995 0.0005 0.0005
vt 0.2502 0.0005 0.9995
vt 0.2502 0.5000 0.9995
vt 0.0005 0.5000 0.9995
vt 0.0005 0.0005 0.9995
vt 0.2502 0.0177 0.9389
vt 0.2502 0.2502 0.9389
vt 0.0291 0.2502 0.9389
vt 0.0291 0.0177 0.9389
vt 0.5000 0.0005 0.9995
vt 0.5000 0.2502 0.9995
vt 0.0005 0.2502 0.9995
vt 0.0005 0.0005 0.9995
vt 0.2502 0.0005 0.9995
vt 0.2502 0.2502 0.9995
vt 0.0005 0.2502 0.9995
vt 0.0005 0.0005 0.9995
vt 0.5000 0.0005 0.0005
vt 0.5000 0.2502 0.0005
vt 0.0005 0.2502 0.0005
vt 0.0005 0.0005 0.0005
vt 0.2502 0.0005 0.0005
vt 0.2502 0.0177 0.0005
vt 0.0291 0.0177 0.0005
vt 0.0005 0.0005 0.0005
vt 0.9995 0.2502 0.0005
vt 0.9709 0.2502 0.0005
vt 0.9709 0.0177 0.0005
vt 0.9995 0.0005 0.0005
vt 0.7498 0.9995 0.0005
vt 0.7498 0.9823 0.0005
vt 0.9709 0.9823 0.0005
vt 0.9995 0.9995 0.0005
vt 0.0005 0.7498 0.0005
vt 0.0291 0.7498 0.0005
vt 0.0291 0.9823 0.0005
vt 0.0005 0.9995 0.0005
vt 0.2502 0.0005 0.0177
vt 0.2502 0.5000 0.0177
vt 0.0291 0.5000 0.0177
vt 0.0291 0.0005 0.0177
vt 0.9995 0.2502 0.9709
vt 0.5000 0.2502 0.9709
vt 0.5000 0.0177 0.9709
vt 0.9995 0.0177 0.9709
vt 0.2502 0.0005 0.9823
vt 0.2502 0.5000 0.9823
vt 0.0291 0.5000 0.9823
vt 0.0291 0.0005 0.9823
vt 0.0005 0.7498 0.0291
vt 0.5000 0.7498 0.0291
vt 0.5000 0.9823 0.0291
vt 0.0005 0.9823 0.0291
vt 0.9709 0.9823 0.9389
vt 0.7498 0.9823 0.9389
vt 0.7498 0.7498 0.9389
vt 0.9709 0.7498 0.9389
vt 0.9995 0.9995 0.9995
vt 0.5000 0.9995 0.9995
vt 0.5000 0.7498 0.9995
vt 0.9995 0.7498 0.9995
vt 0.9995 0.9995 0.9995
vt 0.7498 0.9995 0.9995
vt 0.7498 0.7498 0.9995
vt 0.9995 0.7498 0.9995
vt 0.9995 0.9995 0.0005
vt 0.5000 0.9995 0.0005
vt 0.5000 0.7498 0.0005
vt 0.9995 0.7498 0.0005
vt 0.9995 0.7498 0.0005
vt 0.9709 0.7498 0.0005
vt 0.0005 0.5000 0.0005
vt 0.0291 0.5000 0.0005
vt 0.9995 0.9823 0.9709
vt 0.5000 0.9823 0.9709
vt 0.5000 0.7498 0.9709
vt 0.9995 0.7498 0.9709
vt 0.0005 0.5000 0.0291
vt 0.5000 0.5000 0.0291
vt 0.7498 0.5000 0.9389
vt 0.9709 0.5000 0.9389
vt 0.5000 0.5000 0.9995
vt 0.9995 0.5000 0.9995
vt 0.7498 0.5000 0.9995
vt 0.9995 0.5000 0.9995
vt 0.5000 0.5000 0.0005
vt 0.9995 0.5000 0.0005
vt 0.9709 0.5000 0.0005
vt 0.9995 0.5000 0.0005
vt 0.5000 0.5000 0.9709
vt 0.9995 0.5000 0.9709
vt 0.0005 0.2502 0.0005
vt 0.0291 0.2502 0.0005
vt 0.0005 0.2502 0.0291
vt 0.5000 0.2502 0.0291
vt 0.7498 0.2502 0.9389
vt 0.9709 0.2502 0.9389
vt 0.9995 0.2502 0.9995
vt 0.7498 0.2502 0.9995
vt 0.9995 0.2502 0.9995
vt 0.9995 0.2502 0.0005
vt 0.0005 0.0177 0.0291
vt 0.5000 0.0177 0.0291
vt 0.2502 0.9995 0.0005
vt 0.2502 0.5000 0.0005
vt 0.5000 0.5000 0.0005
vt 0.5000 0.9995 0.0005
vt 0.7498 0.0005 0.9995
vt 0.7498 0.5000 0.9995
vt 0.5000 0.5000 0.9995
vt 0.5000 0.0005 0.9995
vt 0.7498 0.0177 0.9389
vt 0.5000 0.2502 0.9389
vt 0.5000 0.0177 0.9389
vt 0.7498 0.0005 0.9995
vt 0.5000 0.2502 0.9995
vt 0.5000 0.0005 0.9995
vt 0.7498 0.0005 0.0005
vt 0.7498 0.0177 0.0005
vt 0.5000 0.0177 0.0005
vt 0.5000 0.0005 0.0005
vt 0.2502 0.9995 0.0005
vt 0.2502 0.9823 0.0005
vt 0.5000 0.9823 0.0005
vt 0.5000 0.9995 0.0005
vt 0.7498 0.0005 0.0177
vt 0.7498 0.5000 0.0177
vt 0.5000 0.5000 0.0177
vt 0.5000 0.0005 0.0177
vt 0.7498 0.0005 0.9823
vt 0.7498 0.5000 0.9823
vt 0.5000 0.5000 0.9823
vt 0.5000 0.0005 0.9823
vt 0.2502 0.9823 0.9389
vt 0.2502 0.7498 0.9389
vt 0.5000 0.7498 0.9389
vt 0.5000 0.9823 0.9389
vt 0.2502 0.9995 0.9995
vt 0.2502 0.7498 0.9995
vt 0.5000 0.7498 0.9995
vt 0.5000 0.9995 0.9995
vt 0.2502 0.5000 0.9389
vt 0.5000 0.5000 0.9389
vt 0.2502 0.5000 0.9995
vt 0.5000 0.5000 0.9995
vt 0.7498 0.9995 0.0005
vt 0.9995 0.0005 0.9995
vt 0.9709 0.0005 0.9823
vt 0.9709 0.5000 0.9823
vt 0.0291 0.9823 0.9389
vt 0.0291 0.7498 0.9389
vt 0.0291 0.5000 0.9389
vt 0.0005 0.9995 0.0005
vt 0.0005 0.5000 0.0005
vt 0.9995 0.0005 0.9995
vt 0.9995 0.5000 0.9995
vt 0.9709 0.0177 0.9389
vt 0.9709 0.0005 0.0177
vt 0.9709 0.5000 0.0177
vt 0.0005 0.9995 0.9995
vt 0.0005 0.7498 0.9995
vt 0.0005 0.5000 0.9995
vt 0.9995 0.9995 0.0005
vt 0.2502 0.9995 0.9995
vt 0.0005 0.9995 0.9995
vt 0.9995 0.0005 0.9995
vt 0.9995 0.0005 0.0005
vt 0.2502 0.9389 0.0177
vt 0.0291 0.9389 0.0177
vt 0.0611 0.2502 0.9709
vt 0.0611 0.0177 0.9709
vt 0.2502 0.9389 0.9823
vt 0.0291 0.9389 0.9823
vt 0.9389 0.7498 0.0291
vt 0.9389 0.9823 0.0291
vt 0.0005 0.9995 0.9995
vt 0.0005 0.7498 0.9995
vt 0.0005 0.9995 0.0005
vt 0.0005 0.7498 0.0005
vt 0.0611 0.9823 0.9709
vt 0.0611 0.7498 0.9709
vt 0.9389 0.5000 0.0291
vt 0.0005 0.5000 0.9995
vt 0.0005 0.5000 0.0005
vt 0.0611 0.5000 0.9709
vt 0.9389 0.2502 0.0291
vt 0.9389 0.0177 0.0291
vt 0.2502 0.0005 0.0005
vt 0.5000 0.0005 0.0005
vt 0.7498 0.9995 0.9995
vt 0.5000 0.9995 0.9995
vt 0.7498 0.9389 0.0177
vt 0.5000 0.9389 0.0177
vt 0.7498 0.9389 0.9823
vt 0.5000 0.9389 0.9823
vt 0.9709 0.9389 0.9823
vt 0.0005 0.0005 0.0005
vt 0.9995 0.9995 0.9995
vt 0.9709 0.9389 0.0177
# 202 texture coords

f 1/1/1 2/2/2 3/3/3
f 3/3/3 4/4/4 1/1/1
f 5/5/5 6/6/6 7/7/7
f 7/7/7 8/8/8 5/5/5
f 9/9/9 10/10/10 11/11/11
f 11/11/11 12/12/12 9/9/9
f 13/13/13 14/14/14 15/15/15
f 15/15/15 16/16/16 13/13/13
f 17/17/17 18/18/18 19/19/19
f 19/19/19 20/20/20 17/17/17
f 21/21/21 22/22/22 23/23/23
f 23/23/23 24/24/24 21/21/21
f 25/25/25 26/26/26 27/27/27
f 27/27/27 28/28/28 25/25/25
f 29/29/29 30/30/30 31/31/31
f 31/31/31 32/32/32 29/29/29
f 33/33/33 34/34/34 35/35/35
f 35/35/35 36/36/36 33/33/33
f 37/37/37 38/38/38 39/39/39
f 39/39/39 40/40/40 37/37/37
f 41/41/41 42/42/42 43/43/43
f 43/43/43 44/44/44 41/41/41
f 45/45/45 46/46/46 47/47/47
f 47/47/47 48/48/48 45/45/45
f 49/49/49 50/50/50 51/51/51
f 51/51/51 52/52/52 49/49/49
f 53/53/53 54/54/54 55/55/55
f 55/55/55 56/56/56 53/53/53
f 57/57/57 58/58/58 59/59/59
f 59/59/59 60/60/60 57/57/57
f 61/61/61 62/62/62 63/63/63
f 63/63/63 64/64/64 61/61/61
f 65/65/65 66/66/66 67/67/67
f 67/67/67 68/68/68 65/65/65
f 69/69/69 70/70/70 71/71/71
f 71/71/71 72/72/72 69/69/69
f 73/73/73 36/36/36 35/35/35
f 35/35/35 74/74/74 73/73/73
f 75/75/75 76/76/76 38/38/38
f 38/38/38 37/37/37 75/75/75
f 77/77/77 78/78/78 79/79/79
f 79/79/79 80/80/80 77/77/77
f 81/81/81 82/82/82 54/54/54
f 54/54/54 53/53/53 81/81/81
f 60/60/60 59/59/59 83/83/83
f 83/83/83 84/84/84 60/60/60
f 64/64/64 63/63/63 85/85/85
f 85/85/85 86/86/86 64/64/64
f 68/68/68 67/67/67 87/87/87
f 87/87/87 88/88/88 68/68/68
f 72/72/72 71/71/71 89/89/89
f 89/89/89 90/90/90 72/72/72
f 73/73/73 74/74/74 91/91/91
f 91/91/91 92/92/92 73/73/73
f 80/80/80 79/79/79 93/93/93
f 93/93/93 94/94/94 80/80/80
f 95/95/95 96/96/96 76/76/76
f 76/76/76 75/75/75 95/95/95
f 97/97/97 98/98/98 82/82/82
f 82/82/82 81/81/81 97/97/97
f 84/84/84 83/83/83 99/99/99
f 99/99/99 100/100/100 84/84/84
f 86/86/86 85/85/85 14/14/14
f 14/14/14 101/101/101 86/86/86
f 88/88/88 87/87/87 102/102/102
f 102/102/102 103/103/103 88/88/88
f 90/90/90 89/89/89 22/22/22
f 22/22/22 104/104/104 90/90/90
f 92/92/92 91/91/91 30/30/30
f 30/30/30 29/29/29 92/92/92
f 94/94/94 93/93/93 46/46/46
f 46/46/46 45/45/45 94/94/94
f 95/95/95 28/28/28 27/27/27
f 27/27/27 96/96/96 95/95/95
f 105/105/105 106/106/106 98/98/98
f 98/98/98 97/97/97 105/105/105
f 107/107/107 108/108/108 109/109/109
f 109/109/109 110/110/110 107/107/107
f 111/111/111 112/112/112 113/113/113
f 113/113/113 114/114/114 111/111/111
f 115/115/115 99/99/99 116/116/116
f 116/116/116 117/117/117 115/115/115
f 118/118/118 102/102/102 119/119/119
f 119/119/119 120/120/120 118/118/118
f 121/121/121 122/122/122 123/123/123
f 123/123/123 124/124/124 121/121/121
f 125/125/125 126/126/126 127/127/127
f 127/127/127 128/128/128 125/125/125
f 129/129/129 130/130/130 131/131/131
f 131/131/131 132/132/132 129/129/129
f 133/133/133 134/134/134 135/135/135
f 135/135/135 136/136/136 133/133/133
f 137/137/137 138/138/138 139/139/139
f 139/139/139 140/140/140 137/137/137
f 141/141/141 142/142/142 143/143/143
f 143/143/143 144/144/144 141/141/141
f 138/138/138 145/145/145 146/146/146
f 146/146/146 139/139/139 138/138/138
f 142/142/142 147/147/147 148/148/148
f 148/148/148 143/143/143 142/142/142
f 145/145/145 10/10/10 116/116/116
f 116/116/116 146/146/146 145/145/145
f 147/147/147 18/18/18 119/119/119
f 119/119/119 148/148/148 147/147/147
f 110/110/110 109/109/109 2/2/2
f 2/2/2 149/149/149 110/110/110
f 114/114/114 113/113/113 6/6/6
f 6/6/6 5/5/5 114/114/114
f 117/117/117 116/116/116 10/10/10
f 10/10/10 9/9/9 117/117/117
f 124/124/124 123/123/123 26/26/26
f 26/26/26 25/25/25 124/124/124
f 132/132/132 131/131/131 42/42/42
f 42/42/42 41/41/41 132/132/132
f 144/144/144 143/143/143 67/67/67
f 67/67/67 66/66/66 144/144/144
f 143/143/143 148/148/148 87/87/87
f 87/87/87 67/67/67 143/143/143
f 148/148/148 119/119/119 102/102/102
f 102/102/102 87/87/87 148/148/148
f 150/150/150 103/103/103 102/102/102
f 102/102/102 118/118/118 150/150/150
f 125/125/125 40/40/40 39/39/39
f 39/39/39 126/126/126 125/125/125
f 151/151/151 152/152/152 134/134/134
f 134/134/134 133/133/133 151/151/151
f 153/153/153 154/154/154 138/138/138
f 138/138/138 137/137/137 153/153/153
f 154/154/154 155/155/155 145/145/145
f 145/145/145 138/138/138 154/154/154
f 155/155/155 11/11/11 10/10/10
f 10/10/10 145/145/145 155/155/155
f 120/120/120 119/119/119 18/18/18
f 18/18/18 17/17/17 120/120/120
f 128/128/128 127/127/127 34/34/34
f 34/34/34 33/33/33 128/128/128
f 136/136/136 135/135/135 50/50/50
f 50/50/50 49/49/49 136/136/136
f 140/140/140 139/139/139 59/59/59
f 59/59/59 58/58/58 140/140/140
f 139/139/139 146/146/146 83/83/83
f 83/83/83 59/59/59 139/139/139
f 146/146/146 116/116/116 99/99/99
f 99/99/99 83/83/83 146/146/146
f 156/156/156 157/157/157 108/108/108
f 108/108/108 107/107/107 156/156/156
f 158/158/158 159/159/159 112/112/112
f 112/112/112 111/111/111 158/158/158
f 160/160/160 100/100/100 99/99/99
f 99/99/99 115/115/115 160/160/160
f 121/121/121 32/32/32 31/31/31
f 31/31/31 122/122/122 121/121/121
f 161/161/161 162/162/162 130/130/130
f 130/130/130 129/129/129 161/161/161
f 163/163/163 164/164/164 142/142/142
f 142/142/142 141/141/141 163/163/163
f 164/164/164 165/165/165 147/147/147
f 147/147/147 142/142/142 164/164/164
f 165/165/165 19/19/19 18/18/18
f 18/18/18 147/147/147 165/165/165
f 166/166/166 149/149/149 2/2/2
f 2/2/2 1/1/1 166/166/166
f 167/167/167 168/168/168 7/7/7
f 7/7/7 6/6/6 167/167/167
f 169/169/169 101/101/101 14/14/14
f 14/14/14 13/13/13 169/169/169
f 170/170/170 104/104/104 22/22/22
f 22/22/22 21/21/21 170/170/170
f 171/171/171 172/172/172 43/43/43
f 43/43/43 42/42/42 171/171/171
f 173/173/173 174/174/174 47/47/47
f 47/47/47 46/46/46 173/173/173
f 175/175/175 176/176/176 51/51/51
f 51/51/51 50/50/50 175/175/175
f 177/177/177 178/178/178 55/55/55
f 55/55/55 54/54/54 177/177/177
f 179/179/179 180/180/180 63/63/63
f 63/63/63 62/62/62 179/179/179
f 181/181/181 182/182/182 71/71/71
f 71/71/71 70/70/70 181/181/181
f 183/183/183 184/184/184 79/79/79
f 79/79/79 78/78/78 183/183/183
f 185/185/185 177/177/177 54/54/54
f 54/54/54 82/82/82 185/185/185
f 180/180/180 186/186/186 85/85/85
f 85/85/85 63/63/63 180/180/180
f 182/182/182 187/187/187 89/89/89
f 89/89/89 71/71/71 182/182/182
f 184/184/184 188/188/188 93/93/93
f 93/93/93 79/79/79 184/184/184
f 189/189/189 185/185/185 82/82/82
f 82/82/82 98/98/98 189/189/189
f 186/186/186 15/15/15 14/14/14
f 14/14/14 85/85/85 186/186/186
f 187/187/187 23/23/23 22/22/22
f 22/22/22 89/89/89 187/187/187
f 188/188/188 173/173/173 46/46/46
f 46/46/46 93/93/93 188/188/188
f 190/190/190 189/189/189 98/98/98
f 98/98/98 106/106/106 190/190/190
f 191/191/191 192/192/192 109/109/109
f 109/109/109 108/108/108 191/191/191
f 193/193/193 194/194/194 113/113/113
f 113/113/113 112/112/112 193/193/193
f 195/195/195 196/196/196 131/131/131
f 131/131/131 130/130/130 195/195/195
f 197/197/197 198/198/198 135/135/135
f 135/135/135 134/134/134 197/197/197
f 192/192/192 3/3/3 2/2/2
f 2/2/2 109/109/109 192/192/192
f 194/194/194 167/167/167 6/6/6
f 6/6/6 113/113/113 194/194/194
f 196/196/196 171/171/171 42/42/42
f 42/42/42 131/131/131 196/196/196
f 199/199/199 197/197/197 134/134/134
f 134/134/134 152/152/152 199/199/199
f 198/198/198 175/175/175 50/50/50
f 50/50/50 135/135/135 198/198/198
f 200/200/200 191/191/191 108/108/108
f 108/108/108 157/157/157 200/200/200
f 201/201/201 193/193/193 112/112/112
f 112/112/112 159/159/159 201/201/201
f 202/202/202 195/195/195 130/130/130
f 130/130/130 162/162/162 202/202/202
# 224 faces