####################################################
# Wavefront .obj format modified by Milos Seleceni #
####################################################

v  -0.5000 2.5000 1.7500
v  -0.5000 2.5000 1.2500
v  0.5000 2.5000 1.2500
v  0.5000 2.5000 1.7500
v  -0.5000 17.5000 1.7500
v  0.5000 17.5000 1.7500
v  0.5000 17.5000 1.2500
v  -0.5000 17.5000 1.2500
v  -0.5000 2.5000 1.7500
v  0.5000 2.5000 1.7500
v  0.5000 6.2500 1.7500
v  -0.5000 6.2500 1.7500
v  0.5000 10.0000 1.7500
v  -0.5000 10.0000 1.7500
v  0.5000 13.7500 1.7500
v  -0.5000 13.7500 1.7500
v  0.5000 17.5000 1.7500
v  -0.5000 17.5000 1.7500
v  0.5000 2.5000 1.7500
v  0.5000 2.5000 1.2500
v  0.5000 6.2500 1.2500
v  0.5000 6.2500 1.7500
v  0.5000 10.0000 1.2500
v  0.5000 10.0000 1.7500
v  0.5000 13.7500 1.2500
v  0.5000 13.7500 1.7500
v  0.5000 17.5000 1.2500
v  0.5000 17.5000 1.7500
v  0.5000 2.5000 1.2500
v  -0.5000 2.5000 1.2500
v  -0.5000 6.2500 1.2500
v  0.5000 6.2500 1.2500
v  -0.5000 10.0000 1.2500
v  0.5000 10.0000 1.2500
v  -0.5000 13.7500 1.2500
v  0.5000 13.7500 1.2500
v  -0.5000 17.5000 1.2500
v  0.5000 17.5000 1.2500
v  -0.5000 2.5000 1.2500
v  -0.5000 2.5000 1.7500
v  -0.5000 6.2500 1.7500
v  -0.5000 6.2500 1.2500
v  -0.5000 10.0000 1.7500
v  -0.5000 10.0000 1.2500
v  -0.5000 13.7500 1.7500
v  -0.5000 13.7500 1.2500
v  -0.5000 17.5000 1.7500
v  -0.5000 17.5000 1.2500
# 48 vertices

vn 0.0000 -1.0000 0.0000
vn 0.0000 -1.0000 0.0000
vn 0.0000 -1.0000 0.0000
vn 0.0000 -1.0000 0.0000
vn 0.0000 1.0000 -0.0000
vn 0.0000 1.0000 -0.0000
vn 0.0000 1.0000 -0.0000
vn 0.0000 1.0000 -0.0000
vn 0.0000 0.0000 1.0000
vn 0.0000 0.0000 1.0000
vn 0.0000 0.0000 1.0000
vn 0.0000 0.0000 1.0000
vn 0.0000 0.0000 1.0000
vn 0.0000 0.0000 1.0000
vn 0.0000 0.0000 1.0000
vn 0.0000 0.0000 1.0000
vn 0.0000 0.0000 1.0000
vn 0.0000 0.0000 1.0000
vn 1.0000 0.0000 0.0000
vn 1.0000 0.0000 0.0000
vn 1.0000 0.0000 0.0000
vn 1.0000 0.0000 0.0000
vn 1.0000 0.0000 0.0000
vn 1.0000 0.0000 0.0000
vn 1.0000 0.0000 0.0000
vn 1.0000 0.0000 0.0000
vn 1.0000 0.0000 0.0000
vn 1.0000 0.0000 0.0000
vn 0.0000 -0.0000 -1.0000
vn 0.0000 -0.0000 -1.0000
vn 0.0000 -0.0000 -1.0000
vn 0.0000 -0.0000 -1.0000
vn 0.0000 -0.0000 -1.0000
vn 0.0000 -0.0000 -1.0000
vn 0.0000 -0.0000 -1.0000
vn 0.0000 -0.0000 -1.0000
vn 0.0000 -0.0000 -1.0000
vn 0.0000 -0.0000 -1.0000
vn -1.0000 0.0000 0.0000
vn -1.0000 0.0000 0.0000
vn -1.0000 0.0000 0.0000
vn -1.0000 0.0000 0.0000
vn -1.0000 0.0000 0.0000
vn -1.0000 0.0000 0.0000
vn -1.0000 0.0000 0.0000
vn -1.0000 0.0000 0.0000
vn -1.0000 0.0000 0.0000
vn -1.0000 0.0000 0.0000
# 48 vertex normals

vt 0.9995 0.0005 0.0005
vt 0.9995 0.9995 0.0005
vt 0.0005 0.9995 0.0005
vt 0.0005 0.0005 0.0005
vt 0.0005 0.0005 0.9995
vt 0.9995 0.0005 0.9995
vt 0.9995 0.9995 0.9995
vt 0.0005 0.9995 0.9995
vt 0.0005 0.0005 0.0005
vt 0.9995 0.0005 0.0005
vt 0.9995 0.2502 0.0005
vt 0.0005 0.2502 0.0005
vt 0.9995 0.5000 0.0005
vt 0.0005 0.5000 0.0005
vt 0.9995 0.7498 0.0005
vt 0.0005 0.7498 0.0005
vt 0.9995 0.9995 0.0005
vt 0.0005 0.9995 0.0005
vt 0.0005 0.0005 0.9995
vt 0.9995 0.0005 0.9995
vt 0.9995 0.2502 0.9995
vt 0.0005 0.2502 0.9995
vt 0.9995 0.5000 0.9995
vt 0.0005 0.5000 0.9995
vt 0.9995 0.7498 0.9995
vt 0.0005 0.7498 0.9995
vt 0.9995 0.9995 0.9995
vt 0.0005 0.9995 0.9995
vt 0.0005 0.0005 0.9995
vt 0.9995 0.0005 0.9995
vt 0.9995 0.2502 0.9995
vt 0.0005 0.2502 0.9995
vt 0.9995 0.5000 0.9995
vt 0.0005 0.5000 0.9995
vt 0.9995 0.7498 0.9995
vt 0.0005 0.7498 0.9995
vt 0.9995 0.9995 0.9995
vt 0.0005 0.9995 0.9995
vt 0.0005 0.0005 0.0005
vt 0.9995 0.0005 0.0005
vt 0.9995 0.2502 0.0005
vt 0.0005 0.2502 0.0005
vt 0.9995 0.5000 0.0005
vt 0.0005 0.5000 0.0005
vt 0.9995 0.7498 0.0005
vt 0.0005 0.7498 0.0005
vt 0.9995 0.9995 0.0005
vt 0.0005 0.9995 0.0005
# 48 texture coords

f 1/1/1 2/2/2 3/3/3
f 3/3/3 4/4/4 1/1/1
f 5/5/5 6/6/6 7/7/7
f 7/7/7 8/8/8 5/5/5
f 9/9/9 10/10/10 11/11/11
f 11/11/11 12/12/12 9/9/9
f 12/12/12 11/11/11 13/13/13
f 13/13/13 14/14/14 12/12/12
f 14/14/14 13/13/13 15/15/15
f 15/15/15 16/16/16 14/14/14
f 16/16/16 15/15/15 17/17/17
f 17/17/17 18/18/18 16/16/16
f 19/19/19 20/20/20 21/21/21
f 21/21/21 22/22/22 19/19/19
f 22/22/22 21/21/21 23/23/23
f 23/23/23 24/24/24 22/22/22
f 24/24/24 23/23/23 25/25/25
f 25/25/25 26/26/26 24/24/24
f 26/26/26 25/25/25 27/27/27
f 27/27/27 28/28/28 26/26/26
f 29/29/29 30/30/30 31/31/31
f 31/31/31 32/32/32 29/29/29
f 32/32/32 31/31/31 33/33/33
f 33/33/33 34/34/34 32/32/32
f 34/34/34 33/33/33 35/35/35
f 35/35/35 36/36/36 34/34/34
f 36/36/36 35/35/35 37/37/37
f 37/37/37 38/38/38 36/36/36
f 39/39/39 40/40/40 41/41/41
f 41/41/41 42/42/42 39/39/39
f 42/42/42 41/41/41 43/43/43
f 43/43/43 44/44/44 42/42/42
f 44/44/44 43/43/43 45/45/45
f 45/45/45 46/46/46 44/44/44
f 46/46/46 45/45/45 47/47/47
f 47/47/47 48/48/48 46/46/46
# 36 faces