####################################################
# Wavefront .obj format modified by Milos Seleceni #
####################################################

v  -5.0000 0.0000 2.1939
v  -2.4687 0.0000 2.1939
v  -2.4687 0.0000 5.0000
v  -5.0000 0.0000 5.0000
v  -2.4687 0.0000 5.0000
v  -2.4687 5.5000 4.0862
v  -4.0862 5.5000 4.0862
v  -5.0000 0.0000 5.0000
v  5.0000 0.0000 2.1939
v  4.0862 5.5000 2.1939
v  4.0862 5.5000 4.0862
v  5.0000 0.0000 5.0000
v  2.4369 -0.0000 -5.0000
v  2.4369 5.5000 -4.0862
v  4.0862 5.5000 -4.0862
v  5.0000 -0.0000 -5.0000
v  -5.0000 -0.0000 -1.6503
v  -4.0862 5.5000 -1.6503
v  -4.0862 5.5000 -4.0862
v  -5.0000 -0.0000 -5.0000
v  3.2460 10.5563 -3.2460
v  3.2460 10.5563 -1.6503
v  4.0862 5.5000 -1.6503
v  4.0862 5.5000 -4.0862
v  -2.4687 5.5000 -4.0862
v  -4.0862 5.5000 -4.0862
v  -3.2460 10.5563 -3.2460
v  -2.4687 10.5563 -3.2460
v  1.6769 20.0000 -1.6503
v  0.0000 20.0000 -1.6503
v  0.0000 20.0000 0.5158
v  1.6769 20.0000 0.5158
v  -1.6769 20.0000 -1.6503
v  -2.4687 15.2344 -1.6503
v  -2.4687 15.2344 0.5158
v  -1.6769 20.0000 0.5158
v  -2.4687 0.3983 3.7202
v  -2.4687 0.3983 2.1939
v  -3.7270 0.3983 2.1939
v  -3.7270 0.3983 3.7202
v  3.2460 10.5563 0.5158
v  2.4369 10.5563 0.5158
v  2.4369 5.5000 0.5158
v  4.0862 5.5000 0.5158
v  -2.4687 5.5000 4.0862
v  -2.4687 5.5000 3.7202
v  -3.7270 5.5000 3.7202
v  -4.0862 5.5000 4.0862
v  4.0862 5.5000 2.1939
v  3.7270 5.5000 2.1939
v  3.7270 5.5000 3.7202
v  4.0862 5.5000 4.0862
v  2.4369 5.5000 0.5158
v  2.4369 5.5000 0.5240
v  3.7270 5.5000 0.5240
v  4.0862 5.5000 0.5158
v  -4.0862 5.5000 2.1939
v  -3.7270 5.5000 2.1939
v  -3.7270 5.5000 0.5240
v  -4.0862 5.5000 0.5158
v  -2.4687 5.5000 3.7202
v  -2.4687 0.3983 3.7202
v  -3.7270 0.3983 3.7202
v  -3.7270 5.5000 3.7202
v  3.7270 5.5000 2.1939
v  3.7270 0.3982 2.1939
v  3.7270 0.3982 3.7202
v  3.7270 5.5000 3.7202
v  2.4369 5.5000 0.5240
v  2.4369 0.3982 0.5240
v  3.7270 0.3982 0.5240
v  3.7270 5.5000 0.5240
v  -3.7270 5.5000 2.1939
v  -3.7270 0.3983 2.1939
v  -3.7270 0.3983 0.5240
v  -3.7270 5.5000 0.5240
v  2.4369 -0.0000 -5.0000
v  2.4369 -0.0000 -1.6503
v  0.0000 -0.0000 -1.6503
v  0.0000 -0.0000 -5.0000
v  2.4369 0.0000 5.0000
v  2.4369 5.5000 4.0862
v  0.0000 5.5000 4.0862
v  0.0000 0.0000 5.0000
v  -2.4687 -0.0000 -5.0000
v  0.0000 5.5000 -4.0862
v  0.0000 -0.0000 -5.0000
v  2.4369 15.4258 -2.4369
v  2.4369 15.2245 -2.4704
v  0.0000 15.2245 -2.4704
v  1.6769 20.0000 -1.6769
v  0.0000 20.0000 -1.6769
v  -1.6769 20.0000 -1.6769
v  -1.6769 20.0000 -1.6503
v  0.0000 20.0000 -1.6769
v  2.4369 0.3982 3.7202
v  2.4369 0.3982 2.1939
v  0.0000 0.3983 2.1939
v  0.0000 0.3983 3.7202
v  -2.4687 15.2344 0.5158
v  -2.4687 15.2245 0.5158
v  0.0000 15.2245 0.5158
v  -1.6769 20.0000 0.5158
v  0.0000 20.0000 0.5158
v  2.4369 5.5000 4.0862
v  2.4369 5.5000 3.7202
v  0.0000 5.5000 3.7202
v  0.0000 5.5000 4.0862
v  -2.4687 5.5000 0.5158
v  -2.4687 5.5000 0.5240
v  0.0000 5.5000 0.5240
v  0.0000 5.5000 0.5240
v  0.0000 5.5000 0.5158
v  -2.4687 5.5000 0.5158
v  2.4369 5.5000 3.7202
v  2.4369 0.3982 3.7202
v  0.0000 0.3983 3.7202
v  0.0000 5.5000 3.7202
v  -2.4687 5.5000 0.5240
v  -2.4687 0.3983 0.5240
v  0.0000 0.3982 0.5240
v  0.0000 5.5000 0.5240
v  -5.0000 -0.0000 -5.0000
v  -2.4687 -0.0000 -5.0000
v  -2.4687 -0.0000 -1.6503
v  -5.0000 -0.0000 -1.6503
v  5.0000 -0.0000 -1.6503
v  5.0000 -0.0000 -5.0000
v  -5.0000 0.0000 2.1939
v  -4.0862 5.5000 2.1939
v  -4.0862 5.5000 0.5158
v  1.6769 20.0000 0.5158
v  2.4369 15.4258 0.5158
v  2.4369 15.4258 -1.6503
v  1.6769 20.0000 -1.6503
v  1.6769 20.0000 -1.6769
v  -1.6769 20.0000 -1.6769
v  -2.4687 15.2344 -2.4687
v  5.0000 0.0000 2.1939
v  2.4369 0.0000 2.1939
v  5.0000 -0.0000 -1.6503
v  -1.6769 20.0000 0.5158
v  4.0862 5.5000 0.5158
v  0.0000 0.3982 0.5240
v  -2.4687 0.3983 0.5240
v  3.7270 5.5000 0.5240
v  3.7270 0.3982 0.5240
v  -3.7270 5.5000 3.7202
v  -3.7270 0.3983 3.7202
v  3.7270 0.3982 0.5240
v  2.4369 0.3982 0.5240
v  3.7270 0.3982 2.1939
v  -5.0000 0.0000 5.0000
v  -4.0862 5.5000 4.0862
v  5.0000 0.0000 5.0000
v  2.4369 0.0000 5.0000
v  1.6769 20.0000 -1.6769
v  2.4369 15.4258 -2.4369
v  1.6769 20.0000 0.5158
v  2.4369 15.2245 0.5158
v  2.4369 15.4258 0.5158
v  5.0000 -0.0000 -5.0000
v  5.0000 0.0000 5.0000
v  4.0862 5.5000 4.0862
v  2.4704 15.2245 -2.4704
v  3.7270 0.3982 3.7202
v  3.7270 5.5000 3.7202
v  3.7270 0.3982 3.7202
v  2.4704 15.2245 0.5158
v  2.4704 15.2245 -1.6503
v  0.0000 0.0000 2.1939
v  0.0000 0.0000 5.0000
v  -1.6769 20.0000 -1.6769
v  -2.4687 15.2245 -2.4704
v  -2.4687 15.2344 -2.4687
v  -2.4704 15.2245 -1.6503
v  -2.4704 15.2245 0.5158
v  -5.0000 -0.0000 -5.0000
v  -2.4704 15.2245 0.5158
v  -3.7270 5.5000 0.5240
v  -3.7270 5.5000 0.5240
v  -3.7270 0.3983 0.5240
v  -2.4704 15.2245 -2.4704
v  -3.7270 0.3983 0.5240
v  2.4704 15.2245 -2.4704
v  -2.4704 15.2245 -2.4704
v  2.4704 15.2245 0.5158
v  0.0000 10.5563 -3.2460
v  2.4369 10.5563 -3.2460
v  -2.4687 5.5000 0.5158
v  0.0000 5.5000 0.5158
v  0.0000 10.5563 0.5158
v  -2.4687 10.5563 0.5158
v  3.2460 10.5563 -3.2460
v  3.2460 10.5563 0.5158
v  -3.2460 10.5563 0.5158
v  -3.2460 10.5563 -1.6503
v  -3.2460 10.5563 0.5158
v  -4.0862 5.5000 0.5158
v  -3.2460 10.5563 -3.2460
# 200 vertices

vn 0.0000 -1.0000 0.0000
vn 0.0000 -1.0000 0.0000
vn 0.0000 -1.0000 0.0000
vn 0.0000 -1.0000 0.0000
vn 0.0000 0.1639 0.9865
vn 0.0000 0.1639 0.9865
vn 0.0000 0.1639 0.9865
vn 0.0000 0.1639 0.9865
vn 0.9865 0.1639 -0.0000
vn 0.9865 0.1639 -0.0000
vn 0.9865 0.1639 -0.0000
vn 0.9865 0.1639 -0.0000
vn 0.0000 0.1639 -0.9865
vn 0.0000 0.1639 -0.9865
vn 0.0000 0.1639 -0.9865
vn 0.0000 0.1639 -0.9865
vn -0.9865 0.1639 -0.0000
vn -0.9865 0.1639 -0.0000
vn -0.9865 0.1639 -0.0000
vn -0.9865 0.1639 -0.0000
vn 0.9865 0.1639 -0.0000
vn 0.9865 0.1639 -0.0000
vn 0.9865 0.1639 -0.0000
vn 0.9865 0.1639 -0.0000
vn 0.0000 0.1639 -0.9865
vn 0.0000 0.1639 -0.9865
vn 0.0000 0.1639 -0.9865
vn 0.0000 0.1639 -0.9865
vn 0.0000 1.0000 -0.0000
vn 0.0000 1.0000 -0.0000
vn 0.0000 1.0000 -0.0000
vn 0.0000 1.0000 -0.0000
vn -0.9865 0.1639 -0.0000
vn -0.9865 0.1639 0.0000
vn -0.9865 0.1639 -0.0000
vn -0.9865 0.1639 -0.0000
vn 0.0000 1.0000 -0.0000
vn 0.0000 1.0000 -0.0000
vn 0.0000 1.0000 -0.0000
vn 0.0000 1.0000 -0.0000
vn 0.0000 0.0000 1.0000
vn 0.0000 0.0000 1.0000
vn 0.0000 0.0000 1.0000
vn 0.0000 0.0000 1.0000
vn 0.0000 1.0000 -0.0000
vn 0.0000 1.0000 -0.0000
vn 0.0000 1.0000 -0.0000
vn 0.0000 1.0000 -0.0000
vn 0.0000 1.0000 -0.0000
vn 0.0000 1.0000 -0.0000
vn 0.0000 1.0000 -0.0000
vn 0.0000 1.0000 -0.0000
vn 0.0000 1.0000 -0.0000
vn 0.0000 1.0000 -0.0000
vn 0.0000 1.0000 -0.0000
vn 0.0000 1.0000 -0.0000
vn -0.0000 1.0000 -0.0000
vn -0.0000 1.0000 -0.0000
vn -0.0000 1.0000 -0.0000
vn 0.0000 1.0000 -0.0000
vn -0.0000 -0.0000 -1.0000
vn -0.0000 -0.0000 -1.0000
vn -0.0000 -0.0000 -1.0000
vn 0.0000 -0.0000 -1.0000
vn -1.0000 0.0000 -0.0000
vn -1.0000 0.0000 -0.0000
vn -1.0000 0.0000 -0.0000
vn -1.0000 0.0000 -0.0000
vn 0.0000 0.0000 1.0000
vn 0.0000 0.0000 1.0000
vn 0.0000 0.0000 1.0000
vn 0.0000 0.0000 1.0000
vn 1.0000 -0.0000 0.0000
vn 1.0000 -0.0000 0.0000
vn 1.0000 -0.0000 0.0000
vn 1.0000 -0.0000 0.0000
vn 0.0000 -1.0000 0.0000
vn 0.0000 -1.0000 0.0000
vn 0.0000 -1.0000 0.0000
vn 0.0000 -1.0000 0.0000
vn 0.0000 0.1639 0.9865
vn 0.0000 0.1639 0.9865
vn 0.0000 0.1639 0.9865
vn 0.0000 0.1639 0.9865
vn 0.0000 0.1639 -0.9865
vn 0.0000 0.1639 -0.9865
vn 0.0000 0.1639 -0.9865
vn 0.0000 0.1639 -0.9865
vn 0.0000 0.1639 -0.9865
vn -0.0000 0.1639 -0.9865
vn 0.0000 0.1639 -0.9865
vn 0.0000 0.1639 -0.9865
vn 0.0000 1.0000 -0.0000
vn 0.0000 1.0000 -0.0000
vn 0.0000 1.0000 -0.0000
vn 0.0000 1.0000 -0.0000
vn 0.0000 1.0000 -0.0000
vn 0.0000 1.0000 -0.0000
vn 0.0000 1.0000 -0.0000
vn 0.0000 0.0000 1.0000
vn 0.0000 0.0000 1.0000
vn 0.0000 0.0000 1.0000
vn 0.0000 0.0000 1.0000
vn 0.0000 0.0000 1.0000
vn 0.0000 1.0000 -0.0000
vn 0.0000 1.0000 -0.0000
vn 0.0000 1.0000 -0.0000
vn 0.0000 1.0000 -0.0000
vn 0.0000 1.0000 0.0001
vn 0.0000 1.0000 0.0001
vn 0.0000 1.0000 0.0001
vn 0.0000 1.0000 -0.0000
vn 0.0000 1.0000 -0.0000
vn 0.0000 1.0000 -0.0000
vn -0.0000 -0.0000 -1.0000
vn -0.0000 -0.0000 -1.0000
vn -0.0000 -0.0000 -1.0000
vn -0.0000 -0.0000 -1.0000
vn 0.0000 0.0000 1.0000
vn 0.0000 0.0000 1.0000
vn 0.0000 0.0000 1.0000
vn 0.0000 0.0000 1.0000
vn 0.0000 -1.0000 0.0000
vn 0.0000 -1.0000 0.0000
vn 0.0000 -1.0000 0.0000
vn 0.0000 -1.0000 0.0000
vn 0.9865 0.1639 -0.0000
vn 0.9865 0.1639 -0.0000
vn -0.9865 0.1639 -0.0000
vn -0.9865 0.1639 -0.0000
vn -0.9865 0.1639 -0.0000
vn 0.9865 0.1639 -0.0000
vn 0.9865 0.1639 -0.0000
vn 0.9865 0.1639 -0.0000
vn 0.9865 0.1639 -0.0000
vn 0.0000 1.0000 -0.0000
vn -0.9865 0.1639 -0.0000
vn -0.9865 0.1639 -0.0000
vn 0.0000 -1.0000 0.0000
vn 0.0000 -1.0000 0.0000
vn 0.0000 -1.0000 0.0000
vn 0.0000 1.0000 -0.0000
vn 0.9865 0.1639 -0.0000
vn 0.0000 1.0000 -0.0000
vn 0.0000 1.0000 -0.0000
vn -1.0000 0.0000 -0.0000
vn -1.0000 0.0000 -0.0000
vn 1.0000 -0.0000 0.0000
vn 1.0000 -0.0000 0.0000
vn 0.0000 1.0000 -0.0000
vn 0.0000 1.0000 -0.0000
vn 0.0000 1.0000 -0.0000
vn -0.9865 0.1639 -0.0000
vn -0.9865 0.1639 -0.0000
vn 0.0000 -1.0000 0.0000
vn 0.0000 -1.0000 0.0000
vn 0.9865 0.1639 -0.0000
vn 0.9865 0.1639 -0.0000
vn 0.0000 0.0000 1.0000
vn 0.0000 0.0000 1.0000
vn -0.0000 0.0000 1.0000
vn 0.0000 -1.0000 0.0000
vn 0.0000 0.1639 0.9865
vn 0.0000 0.1639 0.9865
vn 0.0000 0.1639 -0.9865
vn 0.0000 1.0000 -0.0000
vn -0.0000 -0.0000 -1.0000
vn -0.0000 -0.0000 -1.0000
vn 0.9865 0.1639 -0.0000
vn 0.9865 0.1639 -0.0000
vn 0.0000 -1.0000 0.0000
vn 0.0000 -1.0000 0.0000
vn -0.0000 0.1639 -0.9865
vn 0.0001 0.1639 -0.9865
vn 0.0001 0.1639 -0.9865
vn -0.9865 0.1639 0.0000
vn -0.9865 0.1639 -0.0000
vn 0.0000 0.1639 -0.9865
vn 0.0000 0.0000 1.0000
vn 0.0000 1.0000 0.0001
vn 0.0000 0.0000 1.0000
vn 0.0000 0.0000 1.0000
vn -0.9865 0.1639 0.0000
vn 0.0000 1.0000 -0.0000
vn 0.9865 0.1639 -0.0000
vn 0.0001 0.1639 -0.9865
vn 0.0000 0.0000 1.0000
vn -0.0000 0.1639 -0.9865
vn 0.0000 0.1639 -0.9865
vn 0.0000 0.0000 1.0000
vn 0.0000 0.0000 1.0000
vn 0.0000 0.0000 1.0000
vn 0.0000 0.0000 1.0000
vn 0.0000 0.1639 -0.9865
vn 0.9865 0.1639 -0.0000
vn -0.9865 0.1639 -0.0000
vn -0.9865 0.1639 -0.0000
vn 0.0000 0.0000 1.0000
vn 0.0000 0.0000 1.0000
vn -0.9865 0.1639 -0.0000
# 200 vertex normals

vt 0.9995 0.2808 0.0005
vt 0.7466 0.2808 0.0005
vt 0.7466 0.0005 0.0005
vt 0.9995 0.0005 0.0005
vt 0.2534 0.0005 0.0005
vt 0.2534 0.2752 0.0918
vt 0.0918 0.2752 0.0918
vt 0.0005 0.0005 0.0005
vt 0.2808 0.0005 0.9995
vt 0.2808 0.2752 0.9082
vt 0.0918 0.2752 0.9082
vt 0.0005 0.0005 0.9995
vt 0.2565 0.0005 0.9995
vt 0.2565 0.2752 0.9082
vt 0.0918 0.2752 0.9082
vt 0.0005 0.0005 0.9995
vt 0.3351 0.0005 0.0005
vt 0.3351 0.2752 0.0918
vt 0.0918 0.2752 0.0918
vt 0.0005 0.0005 0.0005
vt 0.8243 0.5278 0.8243
vt 0.6649 0.5278 0.8243
vt 0.6649 0.2752 0.9082
vt 0.9082 0.2752 0.9082
vt 0.7466 0.2752 0.9082
vt 0.9082 0.2752 0.9082
vt 0.8243 0.5278 0.8243
vt 0.7466 0.5278 0.8243
vt 0.6675 0.6649 0.9995
vt 0.5000 0.6649 0.9995
vt 0.5000 0.4485 0.9995
vt 0.6675 0.4485 0.9995
vt 0.3351 0.9995 0.3325
vt 0.3351 0.7615 0.2534
vt 0.5515 0.7615 0.2534
vt 0.5515 0.9995 0.3325
vt 0.2534 0.1284 0.0204
vt 0.2534 0.2808 0.0204
vt 0.1277 0.2808 0.0204
vt 0.1277 0.1284 0.0204
vt 0.8243 0.5278 0.4485
vt 0.7435 0.5278 0.4485
vt 0.7435 0.2752 0.4485
vt 0.9082 0.2752 0.4485
vt 0.2534 0.0918 0.2752
vt 0.2534 0.1284 0.2752
vt 0.1277 0.1284 0.2752
vt 0.0918 0.0918 0.2752
vt 0.9082 0.2808 0.2752
vt 0.8723 0.2808 0.2752
vt 0.8723 0.1284 0.2752
vt 0.9082 0.0918 0.2752
vt 0.7435 0.4485 0.2752
vt 0.7435 0.4476 0.2752
vt 0.8723 0.4476 0.2752
vt 0.9082 0.4485 0.2752
vt 0.0918 0.2808 0.2752
vt 0.1277 0.2808 0.2752
vt 0.1277 0.4476 0.2752
vt 0.0918 0.4485 0.2752
vt 0.7466 0.2752 0.1284
vt 0.7466 0.0204 0.1284
vt 0.8723 0.0204 0.1284
vt 0.8723 0.2752 0.1284
vt 0.7192 0.2752 0.8723
vt 0.7192 0.0204 0.8723
vt 0.8716 0.0204 0.8723
vt 0.8716 0.2752 0.8723
vt 0.7435 0.2752 0.4476
vt 0.7435 0.0204 0.4476
vt 0.8723 0.0204 0.4476
vt 0.8723 0.2752 0.4476
vt 0.2808 0.2752 0.1277
vt 0.2808 0.0204 0.1277
vt 0.4476 0.0204 0.1277
vt 0.4476 0.2752 0.1277
vt 0.2565 0.9995 0.0005
vt 0.2565 0.6649 0.0005
vt 0.5000 0.6649 0.0005
vt 0.5000 0.9995 0.0005
vt 0.7435 0.0005 0.0005
vt 0.7435 0.2752 0.0918
vt 0.5000 0.2752 0.0918
vt 0.5000 0.0005 0.0005
vt 0.7466 0.0005 0.9995
vt 0.5000 0.2752 0.9082
vt 0.5000 0.0005 0.9995
vt 0.2565 0.7710 0.7435
vt 0.2565 0.7610 0.7468
vt 0.5000 0.7610 0.7468
vt 0.3325 0.9995 0.6675
vt 0.5000 0.9995 0.6675
vt 0.3325 0.6675 0.9995
vt 0.3325 0.6649 0.9995
vt 0.5000 0.6675 0.9995
vt 0.7435 0.1284 0.0204
vt 0.7435 0.2808 0.0204
vt 0.5000 0.2808 0.0204
vt 0.5000 0.1284 0.0204
vt 0.2534 0.7615 0.4485
vt 0.2534 0.7610 0.4485
vt 0.5000 0.7610 0.4485
vt 0.3325 0.9995 0.4485
vt 0.5000 0.9995 0.4485
vt 0.7435 0.0918 0.2752
vt 0.7435 0.1284 0.2752
vt 0.5000 0.1284 0.2752
vt 0.5000 0.0918 0.2752
vt 0.2534 0.4485 0.2752
vt 0.2534 0.4476 0.2752
vt 0.5000 0.4476 0.2752
vt 0.5000 0.4476 0.2752
vt 0.5000 0.4485 0.2752
vt 0.2534 0.4485 0.2752
vt 0.2565 0.2752 0.1284
vt 0.2565 0.0204 0.1284
vt 0.5000 0.0204 0.1284
vt 0.5000 0.2752 0.1284
vt 0.2534 0.2752 0.4476
vt 0.2534 0.0204 0.4476
vt 0.5000 0.0204 0.4476
vt 0.5000 0.2752 0.4476
vt 0.9995 0.9995 0.0005
vt 0.7466 0.9995 0.0005
vt 0.7466 0.6649 0.0005
vt 0.9995 0.6649 0.0005
vt 0.6649 0.0005 0.9995
vt 0.9995 0.0005 0.9995
vt 0.7192 0.0005 0.0005
vt 0.7192 0.2752 0.0918
vt 0.5515 0.2752 0.0918
vt 0.4485 0.9995 0.6675
vt 0.4485 0.7710 0.7435
vt 0.6649 0.7710 0.7435
vt 0.6649 0.9995 0.6675
vt 0.6675 0.6675 0.9995
vt 0.3325 0.9995 0.3325
vt 0.2534 0.7615 0.2534
vt 0.0005 0.2808 0.0005
vt 0.2565 0.2808 0.0005
vt 0.0005 0.6649 0.0005
vt 0.3325 0.4485 0.9995
vt 0.4485 0.2752 0.9082
vt 0.5000 0.4476 0.0204
vt 0.2534 0.4476 0.0204
vt 0.5524 0.2752 0.8723
vt 0.5524 0.0204 0.8723
vt 0.1284 0.2752 0.1277
vt 0.1284 0.0204 0.1277
vt 0.8723 0.4476 0.0204
vt 0.7435 0.4476 0.0204
vt 0.8723 0.2808 0.0204
vt 0.9995 0.0005 0.0005
vt 0.9082 0.2752 0.0918
vt 0.0005 0.0005 0.0005
vt 0.2565 0.0005 0.0005
vt 0.6675 0.9995 0.6675
vt 0.7435 0.7710 0.7435
vt 0.6675 0.9995 0.4485
vt 0.7435 0.7610 0.4485
vt 0.7435 0.7710 0.4485
vt 0.0005 0.9995 0.0005
vt 0.9995 0.0005 0.0005
vt 0.9082 0.2752 0.0918
vt 0.2532 0.7610 0.7468
vt 0.8723 0.1284 0.0204
vt 0.1277 0.2752 0.1284
vt 0.1277 0.0204 0.1284
vt 0.4485 0.7610 0.7468
vt 0.6649 0.7610 0.7468
vt 0.5000 0.2808 0.0005
vt 0.5000 0.0005 0.0005
vt 0.6675 0.9995 0.6675
vt 0.7466 0.7610 0.7468
vt 0.7466 0.7615 0.7466
vt 0.3351 0.7610 0.2532
vt 0.5515 0.7610 0.2532
vt 0.9995 0.0005 0.9995
vt 0.2532 0.7610 0.4485
vt 0.1277 0.4476 0.2752
vt 0.1277 0.2752 0.4476
vt 0.1277 0.0204 0.4476
vt 0.2532 0.7610 0.2532
vt 0.1277 0.4476 0.0204
vt 0.7468 0.7610 0.7468
vt 0.7468 0.7610 0.7468
vt 0.7468 0.7610 0.4485
vt 0.5000 0.5278 0.8243
vt 0.2565 0.5278 0.8243
vt 0.2534 0.2752 0.4485
vt 0.5000 0.2752 0.4485
vt 0.5000 0.5278 0.4485
vt 0.2534 0.5278 0.4485
vt 0.1757 0.5278 0.8243
vt 0.4485 0.5278 0.8243
vt 0.5515 0.5278 0.1757
vt 0.3351 0.5278 0.1757
vt 0.1757 0.5278 0.4485
vt 0.0918 0.2752 0.4485
vt 0.1757 0.5278 0.1757
# 200 texture coords

f 1/1/1 2/2/2 3/3/3
f 3/3/3 4/4/4 1/1/1
f 5/5/5 6/6/6 7/7/7
f 7/7/7 8/8/8 5/5/5
f 9/9/9 10/10/10 11/11/11
f 11/11/11 12/12/12 9/9/9
f 13/13/13 14/14/14 15/15/15
f 15/15/15 16/16/16 13/13/13
f 17/17/17 18/18/18 19/19/19
f 19/19/19 20/20/20 17/17/17
f 21/21/21 22/22/22 23/23/23
f 23/23/23 24/24/24 21/21/21
f 25/25/25 26/26/26 27/27/27
f 27/27/27 28/28/28 25/25/25
f 29/29/29 30/30/30 31/31/31
f 31/31/31 32/32/32 29/29/29
f 33/33/33 34/34/34 35/35/35
f 35/35/35 36/36/36 33/33/33
f 37/37/37 38/38/38 39/39/39
f 39/39/39 40/40/40 37/37/37
f 41/41/41 42/42/42 43/43/43
f 43/43/43 44/44/44 41/41/41
f 45/45/45 46/46/46 47/47/47
f 47/47/47 48/48/48 45/45/45
f 49/49/49 50/50/50 51/51/51
f 51/51/51 52/52/52 49/49/49
f 53/53/53 54/54/54 55/55/55
f 55/55/55 56/56/56 53/53/53
f 57/57/57 58/58/58 59/59/59
f 59/59/59 60/60/60 57/57/57
f 61/61/61 62/62/62 63/63/63
f 63/63/63 64/64/64 61/61/61
f 65/65/65 66/66/66 67/67/67
f 67/67/67 68/68/68 65/65/65
f 69/69/69 70/70/70 71/71/71
f 71/71/71 72/72/72 69/69/69
f 73/73/73 74/74/74 75/75/75
f 75/75/75 76/76/76 73/73/73
f 77/77/77 78/78/78 79/79/79
f 79/79/79 80/80/80 77/77/77
f 81/81/81 82/82/82 83/83/83
f 83/83/83 84/84/84 81/81/81
f 85/85/85 25/25/25 86/86/86
f 86/86/86 87/87/87 85/85/85
f 88/88/88 89/89/89 90/90/90
f 91/91/91 88/88/88 90/90/90
f 92/92/92 91/91/91 90/90/90
f 93/93/93 94/94/94 30/30/30
f 30/30/30 95/95/95 93/93/93
f 96/96/96 97/97/97 98/98/98
f 98/98/98 99/99/99 96/96/96
f 100/100/100 101/101/101 102/102/102
f 103/103/103 100/100/100 102/102/102
f 104/104/104 103/103/103 102/102/102
f 105/105/105 106/106/106 107/107/107
f 107/107/107 108/108/108 105/105/105
f 109/109/109 110/110/110 111/111/111
f 112/112/112 113/113/113 114/114/114
f 115/115/115 116/116/116 117/117/117
f 117/117/117 118/118/118 115/115/115
f 119/119/119 120/120/120 121/121/121
f 121/121/121 122/122/122 119/119/119
f 123/123/123 124/124/124 125/125/125
f 125/125/125 126/126/126 123/123/123
f 127/127/127 128/128/128 24/24/24
f 24/24/24 23/23/23 127/127/127
f 17/17/17 129/129/129 130/130/130
f 17/17/17 130/130/130 131/131/131
f 17/17/17 131/131/131 18/18/18
f 132/132/132 133/133/133 134/134/134
f 134/134/134 135/135/135 132/132/132
f 136/136/136 95/95/95 30/30/30
f 30/30/30 29/29/29 136/136/136
f 137/137/137 138/138/138 34/34/34
f 34/34/34 33/33/33 137/137/137
f 139/139/139 140/140/140 78/78/78
f 78/78/78 141/141/141 139/139/139
f 142/142/142 31/31/31 30/30/30
f 30/30/30 94/94/94 142/142/142
f 126/126/126 125/125/125 2/2/2
f 2/2/2 1/1/1 126/126/126
f 9/9/9 127/127/127 23/23/23
f 9/9/9 23/23/23 143/143/143
f 9/9/9 143/143/143 10/10/10
f 144/144/144 145/145/145 38/38/38
f 38/38/38 98/98/98 144/144/144
f 56/56/56 55/55/55 50/50/50
f 50/50/50 49/49/49 56/56/56
f 57/57/57 48/48/48 47/47/47
f 47/47/47 58/58/58 57/57/57
f 146/146/146 147/147/147 66/66/66
f 66/66/66 65/65/65 146/146/146
f 148/148/148 149/149/149 74/74/74
f 74/74/74 73/73/73 148/148/148
f 150/150/150 151/151/151 97/97/97
f 97/97/97 152/152/152 150/150/150
f 129/129/129 153/153/153 154/154/154
f 154/154/154 130/130/130 129/129/129
f 155/155/155 156/156/156 140/140/140
f 140/140/140 139/139/139 155/155/155
f 87/87/87 86/86/86 14/14/14
f 14/14/14 13/13/13 87/87/87
f 157/157/157 135/135/135 134/134/134
f 134/134/134 158/158/158 157/157/157
f 159/159/159 104/104/104 102/102/102
f 159/159/159 102/102/102 160/160/160
f 161/161/161 159/159/159 160/160/160
f 113/113/113 112/112/112 54/54/54
f 54/54/54 53/53/53 113/113/113
f 122/122/122 121/121/121 70/70/70
f 70/70/70 69/69/69 122/122/122
f 162/162/162 141/141/141 78/78/78
f 78/78/78 77/77/77 162/162/162
f 81/81/81 163/163/163 164/164/164
f 164/164/164 82/82/82 81/81/81
f 88/88/88 165/165/165 89/89/89
f 166/166/166 152/152/152 97/97/97
f 97/97/97 96/96/96 166/166/166
f 105/105/105 52/52/52 51/51/51
f 51/51/51 106/106/106 105/105/105
f 167/167/167 168/168/168 116/116/116
f 116/116/116 115/115/115 167/167/167
f 169/169/169 170/170/170 134/134/134
f 134/134/134 133/133/133 169/169/169
f 171/171/171 79/79/79 78/78/78
f 78/78/78 140/140/140 171/171/171
f 144/144/144 98/98/98 97/97/97
f 97/97/97 151/151/151 144/144/144
f 172/172/172 171/171/171 140/140/140
f 140/140/140 156/156/156 172/172/172
f 171/171/171 172/172/172 3/3/3
f 3/3/3 2/2/2 171/171/171
f 84/84/84 83/83/83 6/6/6
f 6/6/6 5/5/5 84/84/84
f 173/173/173 92/92/92 90/90/90
f 173/173/173 90/90/90 174/174/174
f 175/175/175 173/173/173 174/174/174
f 176/176/176 177/177/177 35/35/35
f 35/35/35 34/34/34 176/176/176
f 99/99/99 98/98/98 38/38/38
f 38/38/38 37/37/37 99/99/99
f 108/108/108 107/107/107 46/46/46
f 46/46/46 45/45/45 108/108/108
f 118/118/118 117/117/117 62/62/62
f 62/62/62 61/61/61 118/118/118
f 85/85/85 178/178/178 26/26/26
f 26/26/26 25/25/25 85/85/85
f 100/100/100 179/179/179 101/101/101
f 114/114/114 60/60/60 59/59/59
f 180/180/180 110/110/110 109/109/109
f 181/181/181 182/182/182 120/120/120
f 120/120/120 119/119/119 181/181/181
f 80/80/80 79/79/79 125/125/125
f 125/125/125 124/124/124 80/80/80
f 183/183/183 176/176/176 34/34/34
f 34/34/34 138/138/138 183/183/183
f 79/79/79 171/171/171 2/2/2
f 2/2/2 125/125/125 79/79/79
f 184/184/184 39/39/39 38/38/38
f 38/38/38 145/145/145 184/184/184
f 185/185/185 170/170/170 22/22/22
f 22/22/22 21/21/21 185/185/185
f 27/27/27 186/186/186 174/174/174
f 174/174/174 28/28/28 27/27/27
f 187/187/187 160/160/160 42/42/42
f 42/42/42 41/41/41 187/187/187
f 14/14/14 86/86/86 188/188/188
f 188/188/188 189/189/189 14/14/14
f 190/190/190 191/191/191 192/192/192
f 192/192/192 193/193/193 190/190/190
f 191/191/191 43/43/43 42/42/42
f 42/42/42 192/192/192 191/191/191
f 194/194/194 15/15/15 14/14/14
f 14/14/14 189/189/189 194/194/194
f 143/143/143 23/23/23 22/22/22
f 22/22/22 195/195/195 143/143/143
f 86/86/86 25/25/25 28/28/28
f 28/28/28 188/188/188 86/86/86
f 18/18/18 131/131/131 196/196/196
f 196/196/196 197/197/197 18/18/18
f 198/198/198 199/199/199 190/190/190
f 190/190/190 193/193/193 198/198/198
f 200/200/200 19/19/19 18/18/18
f 18/18/18 197/197/197 200/200/200
f 189/189/189 188/188/188 90/90/90
f 90/90/90 89/89/89 189/189/189
f 193/193/193 192/192/192 102/102/102
f 102/102/102 101/101/101 193/193/193
f 192/192/192 42/42/42 160/160/160
f 160/160/160 102/102/102 192/192/192
f 89/89/89 165/165/165 194/194/194
f 194/194/194 189/189/189 89/89/89
f 195/195/195 22/22/22 170/170/170
f 170/170/170 169/169/169 195/195/195
f 188/188/188 28/28/28 174/174/174
f 174/174/174 90/90/90 188/188/188
f 197/197/197 196/196/196 177/177/177
f 177/177/177 176/176/176 197/197/197
f 101/101/101 179/179/179 198/198/198
f 198/198/198 193/193/193 101/101/101
f 183/183/183 200/200/200 197/197/197
f 197/197/197 176/176/176 183/183/183
f 158/158/158 134/134/134 170/170/170
f 170/170/170 185/185/185 158/158/158
f 186/186/186 175/175/175 174/174/174
f 187/187/187 161/161/161 160/160/160
# 206 faces